<svg id="Layer_2" data-name="Layer 2" xmlns="http://www.w3.org/2000/svg" viewBox="0 0 695.3 206.56"><path d="M72.31,140.93a7.94,7.94,0,0,0-1.69-2.83,13.14,13.14,0,0,0-2.59-2A21.76,21.76,0,0,0,65,134.64a37.5,37.5,0,0,0-5.2-1.7l-4.91-1.2q-3.83-1-7.78-2.44a35.13,35.13,0,0,1-7.28-3.64,20.31,20.31,0,0,1-6.19-6.19,15.15,15.15,0,0,1-2.15-9,18.89,18.89,0,0,1,4-11.32,25.34,25.34,0,0,1,8.9-7.35,41.5,41.5,0,0,1,9.13-3.25,38.61,38.61,0,0,1,9.26-1,37.62,37.62,0,0,1,10.35,1.7,26.56,26.56,0,0,1,8.74,4.52,21.55,21.55,0,0,1,8.06,17.75l-12.66-.07a12.4,12.4,0,0,0-1.2-5.59,12.62,12.62,0,0,0-3.25-4.1A15.43,15.43,0,0,0,68,99.29a20.22,20.22,0,0,0-5.69-.92,25.13,25.13,0,0,0-5.83.56,22.84,22.84,0,0,0-5.62,2,15.08,15.08,0,0,0-4.46,3.64A10.52,10.52,0,0,0,44.1,110a7,7,0,0,0,1,5.2,10.52,10.52,0,0,0,3.78,3.22A24.33,24.33,0,0,0,54,120.29q2.79.7,5.12,1.2c1.93.47,3.94,1,6,1.62a56.49,56.49,0,0,1,6.08,2.2,39.85,39.85,0,0,1,5.62,2.93,20.23,20.23,0,0,1,4.56,3.85,17.13,17.13,0,0,1,3,5.16,16.93,16.93,0,0,1,.92,6.51,19.72,19.72,0,0,1-3.39,10.6,24.7,24.7,0,0,1-7.78,7.21,34.78,34.78,0,0,1-10.32,4.14,44,44,0,0,1-11,1.17,38.81,38.81,0,0,1-10.93-1.7,29,29,0,0,1-9.36-4.81A22.89,22.89,0,0,1,26,152.63a21.6,21.6,0,0,1-2.3-10.78l12.73.07a14.54,14.54,0,0,0,1.41,6.36,12.23,12.23,0,0,0,3.6,4.39,15.58,15.58,0,0,0,5.31,2.65,23.1,23.1,0,0,0,6.5.88,30.35,30.35,0,0,0,6-.49,23.83,23.83,0,0,0,6-1.91,14.14,14.14,0,0,0,4.84-3.54,10.47,10.47,0,0,0,2.51-5.58A8,8,0,0,0,72.31,140.93Z"/><path d="M147.68,89H176l-1.77,10.11H145.91L139,140.72a22.78,22.78,0,0,0,0,5.79,12.29,12.29,0,0,0,1.59,4.67,8.73,8.73,0,0,0,3.43,3.18,12.34,12.34,0,0,0,5.62,1.28,36,36,0,0,0,7.74-.57q3.85-.7,7.67-1.56l1.2,9.41a28.46,28.46,0,0,1-9.89,3.25,62.06,62.06,0,0,1-10.47.64,20.54,20.54,0,0,1-9.68-2.23,17.7,17.7,0,0,1-6.37-5.76,21.42,21.42,0,0,1-3.28-8.24,35.42,35.42,0,0,1-.39-9.93l6.93-41.58H113.6L115.37,89h19.44l3.25-18.52h12.87Z"/><path d="M196.75,111.48a43,43,0,0,1,8.62-13,39.35,39.35,0,0,1,11.56-8.1,32.69,32.69,0,0,1,14.81-2.86,30.41,30.41,0,0,1,10.36,1.94,24.22,24.22,0,0,1,7.81,4.78,29.59,29.59,0,0,1,4.71,5.58,30.52,30.52,0,0,1,3.35,6.86,40.66,40.66,0,0,1,2,9.47,48.14,48.14,0,0,1-.07,10.11l-.14,1.63a53.8,53.8,0,0,1-4.13,14.85,44.29,44.29,0,0,1-8.17,12.51,37.49,37.49,0,0,1-11.84,8.63,33.45,33.45,0,0,1-15.17,3,29.75,29.75,0,0,1-11-2.19,26.74,26.74,0,0,1-8.27-5.45,35.78,35.78,0,0,1-3.92-5.16,31.61,31.61,0,0,1-2.87-5.8,37.42,37.42,0,0,1-2.22-9.47,47.49,47.49,0,0,1,0-10.25l.21-1.56A55.64,55.64,0,0,1,196.75,111.48ZM205,138.6a27.26,27.26,0,0,0,2.61,9.54,14.51,14.51,0,0,0,5.1,5.73,15.93,15.93,0,0,0,8.34,2.47A19.34,19.34,0,0,0,231.46,154a26.25,26.25,0,0,0,7.78-6.65,36.79,36.79,0,0,0,5.3-9.75,38.3,38.3,0,0,0,2.48-9.69l.14-1.55a52.47,52.47,0,0,0,.17-9.34,27.54,27.54,0,0,0-2.08-9,17.48,17.48,0,0,0-5.16-6.82,14.81,14.81,0,0,0-8.91-2.93,19.26,19.26,0,0,0-10.47,2.36,25.69,25.69,0,0,0-7.7,6.76,35.51,35.51,0,0,0-5.09,9.36A49.24,49.24,0,0,0,205.3,127l-.21,1.56A47.31,47.31,0,0,0,205,138.6Z"/><path d="M342.32,87.87A28.64,28.64,0,0,1,349,89.46l-3.25,12.73q-3.41-.78-6.79-1.28a53.93,53.93,0,0,0-6.86-.56,33,33,0,0,0-7.46.81,24.28,24.28,0,0,0-6.4,2.44,25.51,25.51,0,0,0-6.68,5.23,38.24,38.24,0,0,0-5.34,7.5l-8.48,49.13h-12.8L298.13,89h12.16l-1.69,9.9-.43,2.27a49.33,49.33,0,0,1,5.73-5.66,38.44,38.44,0,0,1,6.43-4.38,32.18,32.18,0,0,1,15.2-3.68Q338.94,87.48,342.32,87.87Z"/><path d="M379.19,163.7a28.48,28.48,0,0,1-9.72-8.06A32,32,0,0,1,364,144a41.59,41.59,0,0,1-1-13.93l.35-3a49.61,49.61,0,0,1,2.19-9.93,49.11,49.11,0,0,1,4.24-9.37,45.7,45.7,0,0,1,6-8.2,39.43,39.43,0,0,1,7.67-6.51,35.9,35.9,0,0,1,9.08-4.17,32.8,32.8,0,0,1,10.36-1.34A27.25,27.25,0,0,1,416.2,91a24.44,24.44,0,0,1,8.63,8.45,32.39,32.39,0,0,1,4.24,11.91,47.54,47.54,0,0,1,.14,13.75l-.92,5.87H375.62a28.67,28.67,0,0,0,.32,9.12,23,23,0,0,0,3.15,8,17.38,17.38,0,0,0,6,5.73,18.27,18.27,0,0,0,8.9,2.33,25.06,25.06,0,0,0,12.27-2.62A37.53,37.53,0,0,0,416.42,146l7.35,6.22a32.7,32.7,0,0,1-13.61,11.07,40.78,40.78,0,0,1-17.29,3.57A30.92,30.92,0,0,1,379.19,163.7ZM393.3,100a24.13,24.13,0,0,0-7,5,32.79,32.79,0,0,0-5.38,7.14,55.69,55.69,0,0,0-3.74,8.13l39.87.15.29-1.28a21.54,21.54,0,0,0-.07-7.56,17.53,17.53,0,0,0-2.69-6.58,15.5,15.5,0,0,0-5.09-4.7,15.32,15.32,0,0,0-7.28-1.94A18.55,18.55,0,0,0,393.3,100Z"/><path d="M611.32,23.49a98.68,98.68,0,0,0-51.69,15.12V183.16A98.07,98.07,0,0,1,663,182.38V37.83A98.66,98.66,0,0,0,611.32,23.49Zm42.17,142.14c-28.38-12.14-53.62-12.16-82-.09-.06-4.87-.09-7.3-.16-12.18A203.19,203.19,0,0,1,637,48.63c-22.31-3.85-43.81-2.71-64.63,5.93V41.1c27.19-11.3,51.43-11.5,78.8-.62.06,4.83.1,7.25.16,12.08a172.4,172.4,0,0,0-62.49,92.95c23.55-4.66,42.47-2.7,64.67,6.75Z"/><path d="M507.93,23.79a98.68,98.68,0,0,0-51.69,15.12V183.46a98.08,98.08,0,0,1,103.39-.78V38.13A98.68,98.68,0,0,0,507.93,23.79Zm40.63,141.84c-27-11.25-49.17-11.25-76.13,0v-124c26.65-11.14,48.65-11.25,75.41-.37V54.72c-20.69-8.57-38.27-10.21-60.08-5.64V88.94c18.95-3.93,34.12-3.22,52.54,2.34v13.37c-18.42-5.56-33.59-6.27-52.54-2.34v43.95c22.13-4.62,39.89-2.88,60.8,6Z"/></svg>