<svg id="Layer_2" data-name="Layer 2" xmlns="http://www.w3.org/2000/svg" viewBox="0 0 800 300"><defs><style>.cls-1{fill:#fff;}</style></defs><path class="cls-1" d="M88.21,223.23a7.85,7.85,0,0,0-1.69-2.83,13.14,13.14,0,0,0-2.59-2,21.76,21.76,0,0,0-3.07-1.48,37.5,37.5,0,0,0-5.2-1.7L70.75,214c-2.55-.66-5.14-1.48-7.78-2.44A35.13,35.13,0,0,1,55.69,208a20.42,20.42,0,0,1-6.19-6.19,15.23,15.23,0,0,1-2.15-9,18.89,18.89,0,0,1,4-11.32,25.28,25.28,0,0,1,8.91-7.35,40.74,40.74,0,0,1,9.12-3.25,38.61,38.61,0,0,1,9.26-1A38.12,38.12,0,0,1,89,171.54a26.82,26.82,0,0,1,8.73,4.53,21.55,21.55,0,0,1,8.06,17.75l-12.66-.07a12.34,12.34,0,0,0-1.2-5.59,12.62,12.62,0,0,0-3.25-4.1,15.66,15.66,0,0,0-4.85-2.48,20.58,20.58,0,0,0-5.69-.91,25.13,25.13,0,0,0-5.83.56,22.84,22.84,0,0,0-5.62,2,14.92,14.92,0,0,0-4.46,3.64A10.61,10.61,0,0,0,60,192.26a7,7,0,0,0,1,5.2,10.39,10.39,0,0,0,3.78,3.21,23.47,23.47,0,0,0,5.13,1.91c1.86.47,3.57.88,5.12,1.21,1.93.47,3.94,1,6,1.62a53.65,53.65,0,0,1,6.08,2.19,41,41,0,0,1,5.62,2.94,20.23,20.23,0,0,1,4.56,3.85,16.5,16.5,0,0,1,3.89,11.67,19.72,19.72,0,0,1-3.39,10.6,24.7,24.7,0,0,1-7.78,7.21A34.78,34.78,0,0,1,79.73,248a44,44,0,0,1-11,1.17,38.69,38.69,0,0,1-10.92-1.7,29.19,29.19,0,0,1-9.37-4.81,22.89,22.89,0,0,1-6.54-7.74,21.6,21.6,0,0,1-2.3-10.78l12.73.07a14.54,14.54,0,0,0,1.41,6.36A12.12,12.12,0,0,0,57.32,235a15.45,15.45,0,0,0,5.3,2.66,23.1,23.1,0,0,0,6.5.88,29.65,29.65,0,0,0,6-.5,23.41,23.41,0,0,0,6-1.9A14.27,14.27,0,0,0,86,232.56,10.62,10.62,0,0,0,88.5,227,8.15,8.15,0,0,0,88.21,223.23Z"/><path class="cls-1" d="M163.58,171.26h28.28l-1.77,10.11H161.81L154.88,223a22.78,22.78,0,0,0,0,5.79,12.29,12.29,0,0,0,1.59,4.67,8.73,8.73,0,0,0,3.43,3.18,12.22,12.22,0,0,0,5.62,1.27,35.33,35.33,0,0,0,7.74-.56q3.85-.7,7.67-1.56l1.2,9.41a28.39,28.39,0,0,1-9.89,3.25,62.06,62.06,0,0,1-10.47.64,20.66,20.66,0,0,1-9.68-2.23,17.79,17.79,0,0,1-6.37-5.76,21.49,21.49,0,0,1-3.28-8.24,35.44,35.44,0,0,1-.39-9.93L149,181.37H129.5l1.77-10.11h19.44L154,152.74h12.87Z"/><path class="cls-1" d="M212.65,193.78a42.85,42.85,0,0,1,8.62-13,39.35,39.35,0,0,1,11.56-8.1,32.69,32.69,0,0,1,14.81-2.86A30.41,30.41,0,0,1,258,171.79a24.2,24.2,0,0,1,7.81,4.77,29.6,29.6,0,0,1,4.71,5.59,31,31,0,0,1,3.36,6.86,41.71,41.71,0,0,1,2.05,9.47,48.83,48.83,0,0,1-.08,10.11l-.14,1.63a53.8,53.8,0,0,1-4.13,14.85,44.29,44.29,0,0,1-8.17,12.51,37.49,37.49,0,0,1-11.84,8.63,33.45,33.45,0,0,1-15.17,3,29.54,29.54,0,0,1-11-2.2,26.54,26.54,0,0,1-8.27-5.44,35.78,35.78,0,0,1-3.92-5.16,31.61,31.61,0,0,1-2.87-5.8,37.42,37.42,0,0,1-2.22-9.47,48.13,48.13,0,0,1,0-10.25l.22-1.56A55.19,55.19,0,0,1,212.65,193.78Zm8.27,27.11a27.11,27.11,0,0,0,2.62,9.55,14.41,14.41,0,0,0,5.09,5.73,15.93,15.93,0,0,0,8.34,2.47,19.44,19.44,0,0,0,10.39-2.33,26.25,26.25,0,0,0,7.78-6.65,36.79,36.79,0,0,0,5.3-9.75,38,38,0,0,0,2.48-9.69l.14-1.56a52.38,52.38,0,0,0,.17-9.33,27.54,27.54,0,0,0-2.08-9.05,17.48,17.48,0,0,0-5.16-6.82,14.77,14.77,0,0,0-8.91-2.94,19.3,19.3,0,0,0-10.46,2.37,25.44,25.44,0,0,0-7.71,6.75,35.72,35.72,0,0,0-5.09,9.37,49.87,49.87,0,0,0-2.62,10.29l-.21,1.56A47.22,47.22,0,0,0,220.92,220.89Z"/><path class="cls-1" d="M358.22,170.17a28.64,28.64,0,0,1,6.65,1.59l-3.25,12.72c-2.27-.51-4.53-.94-6.79-1.27a53.93,53.93,0,0,0-6.86-.56,33,33,0,0,0-7.46.81,23.94,23.94,0,0,0-6.4,2.44,25.51,25.51,0,0,0-6.68,5.23,38.46,38.46,0,0,0-5.34,7.49l-8.48,49.14h-12.8L314,171.26h12.16l-1.69,9.9-.43,2.26a49.24,49.24,0,0,1,5.73-5.65,39.11,39.11,0,0,1,6.43-4.39,33.75,33.75,0,0,1,7.18-2.72,33,33,0,0,1,8-.95C353.7,169.75,356,169.91,358.22,170.17Z"/><path class="cls-1" d="M395.09,246a28.26,28.26,0,0,1-9.72-8.06,31.85,31.85,0,0,1-5.48-11.59,41.59,41.59,0,0,1-1-13.93l.35-3a49.29,49.29,0,0,1,6.43-19.3,45.7,45.7,0,0,1,6-8.2,39.43,39.43,0,0,1,7.67-6.51,35.9,35.9,0,0,1,9.08-4.17,32.51,32.51,0,0,1,10.36-1.34,27.32,27.32,0,0,1,13.37,3.43,24.49,24.49,0,0,1,8.62,8.45A32.32,32.32,0,0,1,445,193.64a47.54,47.54,0,0,1,.14,13.75l-.91,5.87H391.52a28.67,28.67,0,0,0,.32,9.12,23,23,0,0,0,3.15,8,17.47,17.47,0,0,0,6,5.73,18.39,18.39,0,0,0,8.91,2.33,25,25,0,0,0,12.26-2.62,37.53,37.53,0,0,0,10.15-7.49l7.35,6.22a32.64,32.64,0,0,1-13.61,11.07,40.78,40.78,0,0,1-17.29,3.57A30.79,30.79,0,0,1,395.09,246Zm14.11-63.73a24.13,24.13,0,0,0-7,5,32.43,32.43,0,0,0-5.37,7.14,54.73,54.73,0,0,0-3.75,8.13l39.87.14.29-1.27a21.54,21.54,0,0,0-.07-7.56,17.47,17.47,0,0,0-2.69-6.58,15.5,15.5,0,0,0-5.09-4.7,15.32,15.32,0,0,0-7.28-1.94A18.55,18.55,0,0,0,409.2,182.26Z"/><path class="cls-1" d="M627.22,105.79a98.68,98.68,0,0,0-51.69,15.12V265.46a98.08,98.08,0,0,1,103.39-.78V120.13A98.65,98.65,0,0,0,627.22,105.79Zm42.17,142.13c-28.38-12.13-53.62-12.16-82-.08-.06-4.87-.09-7.31-.16-12.18a203.19,203.19,0,0,1,65.68-104.73c-22.31-3.85-43.81-2.71-64.63,5.93V123.4c27.19-11.31,51.43-11.5,78.8-.63.06,4.84.1,7.25.16,12.09a172.4,172.4,0,0,0-62.49,92.95c23.55-4.66,42.47-2.7,64.67,6.74Z"/><path class="cls-1" d="M523.83,106.09a98.68,98.68,0,0,0-51.69,15.12V265.76A98.08,98.08,0,0,1,575.53,265V120.43A98.58,98.58,0,0,0,523.83,106.09Zm40.63,141.83c-27-11.24-49.17-11.24-76.13,0v-124c26.65-11.13,48.65-11.24,75.41-.36V137c-20.69-8.57-38.27-10.21-60.08-5.64v39.86c18.95-3.93,34.12-3.23,52.54,2.33v13.37c-18.42-5.56-33.59-6.26-52.54-2.33v43.94c22.13-4.61,39.89-2.87,60.8,6Z"/></svg>